Coordinates
version=1
nRows=10
nColumns=22
inDegrees=yes

Units are S.I. units (second, meters, Newtons, ...)
If the header above contains a line with 'inDegrees', this indicates whether rotational values are in degrees (yes) or radians (no).

endheader
time	pelvis_tilt	pelvis_list	pelvis_rotation	pelvis_tx	pelvis_ty	pelvis_tz	hip_flexion_r	hip_adduction_r	hip_rotation_r	knee_angle_r	ankle_angle_r	subtalar_angle_r	hip_flexion_l	hip_adduction_l	hip_rotation_l	knee_angle_l	ankle_angle_l	subtalar_angle_l	lumbar_extension	lumbar_bending	lumbar_rotation
      1.77000000	     -0.88581992	     -3.27961508	     -4.32466279	     -1.17423342	      1.02153492	     -0.11864728	      2.20554588	      8.32627296	     -6.48202060	    -11.27036721	     10.56748541	     -5.93516344	      9.84827313	     -5.97143391	     -4.50957498	    -24.07877777	     13.23221745	      0.50491429	    -13.56882492	      3.57965140	      3.24892012
      1.78000000	     -0.83275730	     -3.31564581	     -4.22095710	     -1.17379821	      1.02154668	     -0.11834593	      2.08478525	      8.39034899	     -6.53969064	    -11.20226437	     10.60137191	     -5.96170871	     10.22037488	     -6.03867132	     -4.33121971	    -24.85995833	     13.42111627	      0.54336676	    -13.70359017	      3.57772799	      3.29630953
      1.79000000	     -0.84001804	     -3.32947796	     -4.09182367	     -1.17339606	      1.02147725	     -0.11810064	      2.05188780	      8.43279389	     -6.61804089	    -11.16680693	     10.58037008	     -6.00390510	     10.69516883	     -6.07619835	     -4.12494854	    -25.67359340	     13.58766749	      0.61026598	    -13.76995070	      3.55852920	      3.29096773
      1.80000000	     -0.77503946	     -3.34940340	     -3.98386480	     -1.17291015	      1.02153868	     -0.11786825	      1.92012490	      8.47537263	     -6.67628707	    -11.10357982	     10.60358638	     -6.02222330	     11.07740602	     -6.11163867	     -3.95520498	    -26.45546338	     13.77643237	      0.58789809	    -13.92015078	      3.53933750	      3.35037397
      1.81000000	     -0.72791723	     -3.35907904	     -3.85881696	     -1.17240701	      1.02158587	     -0.11766167	      1.81002794	      8.50897103	     -6.74919821	    -11.04257154	     10.61057743	     -6.04081417	     11.49583188	     -6.13190120	     -3.78477112	    -27.23182312	     13.95349698	      0.53990339	    -14.04787416	      3.50563432	      3.39160171
      1.82000000	     -0.71072569	     -3.35020528	     -3.73150436	     -1.17190853	      1.02160663	     -0.11750927	      1.74786503	      8.52019959	     -6.82765904	    -11.00676402	     10.58643655	     -6.06219537	     11.95707181	     -6.12425986	     -3.61166370	    -27.98907097	     14.11435568	      0.44345595	    -14.14368242	      3.45871269	      3.41882234
      1.83000000	     -0.64812528	     -3.34134397	     -3.62173484	     -1.17131995	      1.02171324	     -0.11735055	      1.61397443	      8.52969444	     -6.88939537	    -10.93999819	     10.62359906	     -6.07418769	     12.35242790	     -6.11654760	     -3.48703127	    -28.69497359	     14.27891871	      0.34473894	    -14.28647709	      3.40300274	      3.50655594
      1.84000000	     -0.60105434	     -3.32538966	     -3.50688703	     -1.17072157	      1.02181080	     -0.11722140	      1.50311718	      8.53093072	     -6.95793212	    -10.88376199	     10.62991694	     -6.08146966	     12.76721797	     -6.09612491	     -3.35952076	    -29.36222160	     14.42237547	      0.21441994	    -14.41293946	      3.33980008	      3.58424944
      1.85000000	     -0.55878458	     -3.29897571	     -3.40258263	     -1.17009871	      1.02191650	     -0.11710958	      1.40133285	      8.51925519	     -7.01886598	    -10.83786706	     10.64350055	     -6.08655546	     13.17911584	     -6.06202229	     -3.24819835	    -29.97616442	     14.53997794	      0.06810994	    -14.53516024	      3.26443342	      3.67888820
      1.86000000	     -0.52200764	     -3.26202836	     -3.31075363	     -1.16944944	      1.02202384	     -0.11700530	      1.30944904	      8.49473297	     -7.07048028	    -10.80272006	     10.65961535	     -6.08977302	     13.58586862	     -6.01607455	     -3.15457418	    -30.53049093	     14.62454084	     -0.08642528	    -14.65164842	      3.17537816	      3.78728735
